<svg width="184" height="123" viewBox="0 0 184 123" fill="none" xmlns="http://www.w3.org/2000/svg">
    <g>
        <path
            d="M56.4077 35.7977C55.63 35.7977 55 35.1667 55 34.3886C55 33.61 55.63 32.9795 56.4077 32.9795C57.1853 32.9795 57.8153 33.61 57.8153 34.3886C57.8153 35.1667 57.1853 35.7977 56.4077 35.7977Z"
            fill="#E57863" />
        <path
            d="M56.4077 43.3133C55.63 43.3133 55 42.6828 55 41.9042C55 41.1261 55.63 40.4951 56.4077 40.4951C57.1853 40.4951 57.8153 41.1261 57.8153 41.9042C57.8153 42.6828 57.1853 43.3133 56.4077 43.3133Z"
            fill="#E57863" />
        <path
            d="M48.4077 35.7977C47.6302 35.7977 47 35.1667 47 34.3886C47 33.61 47.6302 32.9795 48.4077 32.9795C49.1852 32.9795 49.8154 33.61 49.8154 34.3886C49.8154 35.1667 49.1852 35.7977 48.4077 35.7977Z"
            fill="#E57863" />
        <path
            d="M48.4077 43.3133C47.6302 43.3133 47 42.6828 47 41.9042C47 41.1261 47.6302 40.4951 48.4077 40.4951C49.1852 40.4951 49.8154 41.1261 49.8154 41.9042C49.8154 42.6828 49.1852 43.3133 48.4077 43.3133Z"
            fill="#E57863" />
        <path
            d="M40.4077 35.7977C39.6303 35.7977 39 35.1667 39 34.3886C39 33.61 39.6303 32.9795 40.4077 32.9795C41.1852 32.9795 41.8154 33.61 41.8154 34.3886C41.8154 35.1667 41.1852 35.7977 40.4077 35.7977Z"
            fill="#E57863" />
        <path
            d="M40.4077 43.3133C39.6303 43.3133 39 42.6828 39 41.9042C39 41.1261 39.6303 40.4951 40.4077 40.4951C41.1852 40.4951 41.8154 41.1261 41.8154 41.9042C41.8154 42.6828 41.1852 43.3133 40.4077 43.3133Z"
            fill="#E57863" />
        <path
            d="M24.4077 43.7977C23.6303 43.7977 23 43.1672 23 42.3886C23 41.6105 23.6303 40.9795 24.4077 40.9795C25.1852 40.9795 25.8154 41.6105 25.8154 42.3886C25.8154 43.1672 25.1852 43.7977 24.4077 43.7977Z"
            fill="#E57863" />
        <path
            d="M25.8182 55.5767C25.8182 56.3541 25.1877 56.9844 24.4091 56.9844C23.631 56.9844 23 56.3541 23 55.5767C23 54.7992 23.631 54.169 24.4091 54.169C25.1877 54.169 25.8182 54.7992 25.8182 55.5767Z"
            fill="#E57863" />
        <path
            d="M24.4077 50.5433C23.6303 50.5433 23 49.9123 23 49.1337C23 48.3556 23.6303 47.7246 24.4077 47.7246C25.1852 47.7246 25.8154 48.3556 25.8154 49.1337C25.8154 49.9123 25.1852 50.5433 24.4077 50.5433Z"
            fill="#E57863" />
        <path
            d="M32.4077 35.7977C31.6302 35.7977 31 35.1667 31 34.3886C31 33.61 31.6302 32.9795 32.4077 32.9795C33.1852 32.9795 33.8154 33.61 33.8154 34.3886C33.8154 35.1667 33.1852 35.7977 32.4077 35.7977Z"
            fill="#E57863" />
        <path
            d="M32.4077 43.3133C31.6302 43.3133 31 42.6828 31 41.9042C31 41.1261 31.6302 40.4951 32.4077 40.4951C33.1852 40.4951 33.8154 41.1261 33.8154 41.9042C33.8154 42.6828 33.1852 43.3133 32.4077 43.3133Z"
            fill="#E57863" />
        <path
            d="M32.4077 50.0579C31.6302 50.0579 31 49.4269 31 48.6483C31 47.8703 31.6302 47.2393 32.4077 47.2393C33.1852 47.2393 33.8154 47.8703 33.8154 48.6483C33.8154 49.4269 33.1852 50.0579 32.4077 50.0579Z"
            fill="#E57863" />
        <path
            d="M33.8187 55.0923C33.8187 55.8697 33.1877 56.5 32.4091 56.5C31.631 56.5 31 55.8697 31 55.0923C31 54.3148 31.631 53.6846 32.4091 53.6846C33.1877 53.6846 33.8187 54.3148 33.8187 55.0923Z"
            fill="#E57863" />
        <g>
            <path
                d="M160.698 43.4551C158.002 30.3308 145.178 21.877 132.053 24.573C118.929 27.2689 110.475 40.0937 113.171 53.2179C115.867 66.3421 128.692 74.796 141.816 72.1C154.941 69.4041 163.394 56.5793 160.698 43.4551Z"
                stroke="#DFDFE4" stroke-opacity="0.85" stroke-width="0.5" />
            <path
                d="M168.276 41.8986C164.721 24.5892 147.806 13.4396 130.497 16.9952C113.187 20.5508 102.038 37.4653 105.593 54.7747C109.149 72.0841 126.063 83.2338 143.373 79.6782C160.682 76.1225 171.832 59.2081 168.276 41.8986Z"
                stroke="#DFDFE4" stroke-opacity="0.85" stroke-width="0.5" />
            <path
                d="M176.051 40.3989C171.606 18.7583 150.459 4.81881 128.818 9.26413C107.178 13.7095 93.2381 34.8563 97.6834 56.4969C102.129 78.1375 123.276 92.077 144.916 87.6317C166.557 83.1864 180.496 62.0395 176.051 40.3989Z"
                stroke="#DFDFE4" stroke-opacity="0.85" stroke-width="0.5" />
            <path
                d="M151.357 45.3749C149.721 37.4091 141.937 32.2781 133.971 33.9144C126.006 35.5507 120.875 43.3347 122.511 51.3004C124.147 59.2661 131.931 64.3972 139.897 62.7609C147.863 61.1246 152.994 53.3406 151.357 45.3749Z"
                stroke="#DFDFE4" stroke-opacity="0.85" stroke-width="0.5" />
            <path
                d="M165.989 76.4018C165.663 75.8362 164.939 75.6424 164.374 75.969C163.808 76.2955 163.614 77.0187 163.941 77.5843C164.268 78.1499 164.991 78.3437 165.556 78.0171C166.122 77.6906 166.316 76.9674 165.989 76.4018Z"
                fill="#FFD2D2" />
            <path
                d="M113.852 15.9263C113.46 15.2476 112.592 15.015 111.913 15.4069C111.235 15.7987 111.002 16.6666 111.394 17.3453C111.786 18.024 112.654 18.2566 113.332 17.8647C114.011 17.4729 114.244 16.605 113.852 15.9263Z"
                fill="#FEEACB" />
            <path d="M167.291 44.0664L170.273 44.1591L168.242 45.7139L167.291 44.0664Z" fill="#C1BBFF" />
            <path
                d="M138.647 45.4375H38.2305C36.6756 45.4375 35.415 46.6995 35.415 48.2562V101.803C35.415 103.36 36.6756 104.622 38.2305 104.622H138.647C140.202 104.622 141.462 103.36 141.462 101.803V48.2562C141.462 46.6995 140.202 45.4375 138.647 45.4375Z"
                fill="white" />
            <path
                d="M138.647 45.6709H38.2301C36.8035 45.6709 35.6475 46.8283 35.6475 48.2559V101.803C35.6475 103.231 36.8035 104.388 38.2301 104.388H138.647C140.073 104.388 141.229 103.231 141.229 101.803V48.2559C141.229 46.8283 140.073 45.6709 138.647 45.6709Z"
                stroke="#F4F4F4" stroke-opacity="0.7" />
            <path
                d="M141.166 45.3187L140.916 46.1464H135L135.245 45.3187H141.166ZM138.772 52.6323L135.075 48.2911L135.066 47.6847H136.684C137.173 47.6847 137.59 47.6142 137.935 47.4728C138.28 47.3285 138.543 47.1156 138.725 46.8333C138.91 46.5509 139.003 46.2013 139.003 45.7846C139.003 45.1697 138.81 44.6872 138.424 44.3358C138.041 43.9815 137.493 43.8046 136.778 43.8046H135L135.245 43H136.778C137.468 43 138.044 43.1192 138.508 43.3576C138.976 43.596 139.327 43.9252 139.562 44.3452C139.801 44.7624 139.919 45.2421 139.919 45.7846C139.919 46.2926 139.805 46.75 139.576 47.1577C139.35 47.5622 139.001 47.8838 138.527 48.1217C138.057 48.3573 137.457 48.4746 136.726 48.4746H136.387L139.868 52.5618V52.6323H138.772ZM141.199 43L140.954 43.8278L135.969 43.8046L136.194 43H141.199Z"
                fill="#AACCFB" />
            <path d="M83.8544 27.8877H76.4121V73.1493H83.8544V27.8877Z" fill="#4B7CCA" />
            <path d="M99.2973 58.2686H91.8545V83.0693H99.2973V58.2686Z" fill="#E86358" />
            <path d="M114.739 37.8076H107.297V64.4687H114.739V37.8076Z" fill="#4B7CCA" />
        </g>
        <path
            d="M59.413 86.505C61.1636 88.7689 62.6147 91.3146 63.7343 94.0675L63.7353 79.5391L51.4004 79.5395C54.3617 81.1482 57.0824 83.4863 59.413 86.505Z"
            fill="#387ED1" />
        <path
            d="M41.6302 81.0898C39.3491 81.0898 37.1509 81.5794 35.0855 82.4833L35.084 108.183L62.4734 108.181C62.2586 93.1965 52.9938 81.0894 41.6302 81.0898Z"
            fill="#387ED1" />
        <g opacity="0.3">
            <path
                d="M50.2609 116.063H26.2838C25.8461 116.063 25.4912 115.651 25.4912 115.142V66.3223C25.4912 65.8138 25.8461 65.4014 26.2838 65.4014H50.2609C50.6987 65.4014 51.0536 65.8138 51.0536 66.3223V115.142C51.0536 115.651 50.6987 116.063 50.2609 116.063Z"
                fill="#B8DCFF" />
        </g>
        <path
            d="M139.746 105.634V104.853C139.746 104.209 139.875 103.629 140.133 103.114C140.39 102.593 140.757 102.182 141.233 101.88C141.709 101.577 142.275 101.426 142.93 101.426C143.59 101.426 144.156 101.577 144.626 101.88C145.097 102.182 145.458 102.593 145.71 103.114C145.961 103.629 146.088 104.209 146.088 104.853V105.634C146.088 106.278 145.959 106.857 145.701 107.372C145.449 107.887 145.088 108.299 144.618 108.607C144.147 108.909 143.585 109.06 142.93 109.06C142.263 109.06 141.692 108.909 141.216 108.607C140.746 108.299 140.382 107.887 140.124 107.372C139.873 106.857 139.746 106.278 139.746 105.634ZM141.065 104.853V105.634C141.065 106.266 141.219 106.807 141.527 107.255C141.841 107.697 142.308 107.918 142.93 107.918C143.534 107.918 143.991 107.697 144.299 107.255C144.607 106.807 144.76 106.266 144.76 105.634V104.853C144.76 104.22 144.609 103.683 144.307 103.24C144.005 102.792 143.546 102.568 142.93 102.568C142.319 102.568 141.855 102.792 141.535 103.24C141.222 103.683 141.065 104.22 141.065 104.853ZM131.079 95.5975V94.8166C131.079 94.1724 131.208 93.5929 131.466 93.0778C131.723 92.5627 132.09 92.154 132.566 91.8518C133.042 91.5438 133.607 91.3896 134.262 91.3896C134.923 91.3896 135.488 91.5438 135.959 91.8518C136.429 92.154 136.79 92.5627 137.042 93.0778C137.294 93.5929 137.42 94.1724 137.42 94.8166V95.5975C137.42 96.2413 137.292 96.8236 137.034 97.3443C136.782 97.8594 136.421 98.2681 135.951 98.5704C135.48 98.8731 134.918 99.024 134.262 99.024C133.596 99.024 133.025 98.8731 132.549 98.5704C132.079 98.2681 131.715 97.8594 131.457 97.3443C131.205 96.8236 131.079 96.2413 131.079 95.5975ZM132.398 94.8166V95.5975C132.398 96.2299 132.552 96.7706 132.86 97.2185C133.173 97.6608 133.641 97.8817 134.262 97.8817C134.867 97.8817 135.323 97.6608 135.631 97.2185C135.939 96.7706 136.093 96.2299 136.093 95.5975V94.8166C136.093 94.1837 135.942 93.6464 135.64 93.2036C135.337 92.7557 134.878 92.532 134.262 92.532C133.652 92.532 133.187 92.7557 132.868 93.2036C132.554 93.6464 132.398 94.1837 132.398 94.8166ZM131.852 108.825L143.669 91.6247H145.155L133.339 108.825H131.852Z"
            fill="#F2B456" />
    </g>

</svg>